<svg viewBox="0 0 522.4 178.5" xmlns="http://www.w3.org/2000/svg"><path d="M178.01.03c-.62.053-1.207.36-1.637.91-.14.177-.248.383-.34.71-.534 1.237-.535 3.894-.44 28.04l.052 13.765V57.21l.94.7.03-.09c1.2.9 2.3.94 3.3.12l.7-.6V1.24l-.76-.6c-.57-.464-1.225-.664-1.845-.61zm-7.63 8.85c-.226-.012-.486.01-.786.01-.742 0-1.245-.12-1.586.47-.065.043-.137.08-.193.13-.167.15-.287.4-.377 1.07l-.145.14v2.1c-.1 2.983-.11 8.802-.11 20.84 0 12.29.005 18.093.11 21.022v1.867l.137.13c.103.79.244 1.06.455 1.28l.13-.15c.8.8 2.4.9 3.4.2l.8-.5v-23.7c0-21.5-.002-23.7-.6-24.3-.16-.16-.377-.28-.617-.37-.17-.17-.373-.23-.617-.24zm-9.36 8.472c-.7-.017-1.377.184-1.727.61-.132.147-.234.436-.316 1.06l-.184.177v3.29c-.074 2.86-.1 7.43-.1 15.5l-.048 19.4.78.6-.132-.01c1 .8 2.1.8 3.3-.1l1-.75v-19.2c0-18.7.002-19.2-.698-19.9-.45-.44-1.175-.68-1.875-.69zm76.336 44.088c-3.788 0-7.562.25-9.662.75-15.8 3.4-28 13-35 27.2-3.4 7.2-4.9 13.6-4.9 21.6 0 3.005.228 5.856.7 8.63.05.37.093.765.15 1.09 3.26 17.8 16 32.5 33.16 38.2 6.51 2.1 8.11 2.3 23.78 2.5l14.18.1.9-.9c1.11-1.1 1.16-2.6.14-3.7l-.8-.8h-1.607c-1.747-.15-5.353-.2-13.604-.32-10.254-.144-13.34-.19-15.494-.532-1.41-.283-2.78-.65-4.41-1.148-19.2-5.8-32.5-24.3-31.6-44.2.2-4.7.8-8.2 2.1-12.1 7.7-23.6 33.1-36.5 56.4-28.7 13.6 4.5 24.2 15.302 28.6 29.102.98 3.1 1.51 5.106 1.8 9.367.27 4.69.3 12.02.3 25.74 0 8.62.04 15.31.11 19.92.06 5.77.2 7.37.52 7.67l-.18.6c.7.8 2.9.9 3.8.2.11-.08.2-.27.27-.6.49-.62.49-3.7.49-27.61 0-29 0-29.5-1.8-35.7-1.91-6.83-5.49-13.18-10.21-18.57-2.73-3.19-7.5-7.55-10.31-9.46-5.5-3.6-11.7-6.2-18.1-7.6-2.15-.5-5.95-.75-9.74-.75zm-187.52.24c-3.293-.015-6.568.16-8.768.52-10.01 1.7-19.1 6.44-26.48 13.8-7.63 7.6-12.11 16.2-13.96 26.81-.424 2.445-.582 3.994-.602 6.19-.12 2.465-.037 4.97.238 7.475.317 4.486.985 7.45 2.545 11.836 2.48 7 6.17 12.7 11.77 18.3 8.35 8.4 18.6 13.2 29.92 14.2h.11c1.7.15 2.97.22 4.14.26l1.36.12c.97.08 2.56-.06 4.4-.32.17-.01.31-.02.49-.04 11-1.18 21.1-5.76 28.7-12.98 1.7-1.6 2-2.12 2-3.1 0-1.53-1.1-2.6-2.6-2.6-.9 0-1.7.48-3.8 2.33-6.03 5.3-12.63 8.64-20.98 10.6-3.87.91-12.9.94-17 .04-11.26-2.43-20.66-8.38-27.33-17.3-5.49-7.36-8.42-15.93-8.81-24.57-.04-1.73-.01-3.54.07-5.2.25-3.46.91-6.89 1.98-10.23.06-.2.12-.39.19-.59.13-.41.28-.82.43-1.23.06-.17.12-.34.19-.51 1.44-3.77 3.42-7.39 5.93-10.75 7.22-9.64 17.91-15.86 29.23-17.56 3.6-.5 7.27-.56 10.88-.22.46.05.92.11 1.37.18 9.1 1.4 17.9 5.5 24.3 11.6 1.6 1.48 2.1 1.74 3.3 1.74 1.7 0 2.6-.92 2.6-2.7 0-.95-.41-1.5-2.56-3.47-6.45-5.92-15.76-10.46-24.43-11.96-2.27-.4-5.58-.6-8.87-.62zm115.86.39c-18.343-.008-28.526-.01-34.936.12h-6.834l-1.54.416c-2.2.26-3.498.645-5.49 1.214-17.72 4.94-31.78 20.65-34.92 39-.32 1.854-.514 4.262-.59 6.774-.075 1.492-.073 2.944-.007 4.35.06 2.548.25 4.943.56 6.697 3.86 21.1 20.78 37.35 42.06 40.4l-.51.07c4.2.6 11.7.4 16.2-.4 1.7-.3 4.8-1.1 6.9-1.8 2.93-.97 5.75-2.24 8.43-3.75 10.77-5.93 19.29-15.85 23.29-27.84.84-2.5 1.38-4.46 1.74-6.86.08-.45.18-.9.25-1.36.4-2.4.5-6.5.5-16.5 0-12.8 0-13.3-.7-14-.49-.48-1.09-.7-1.72-.66-.74-.17-1.47.04-2.21.64l-.9.74v12.81c0 13.7-.2 16.3-1.9 22.1-4.98 16.94-19.79 29.31-36.92 31.57-4.47.36-11.72.06-14.97-.58-9-2-16.9-6.5-23.2-13.2-1.5-1.59-2.85-3.25-4.07-4.96-.07-.1-.15-.2-.21-.3-.26-.37-.51-.73-.76-1.11l-.23-.36-.01-.01c-2.26-3.69-4.04-7.75-5.27-12.1-.06-.22-.13-.43-.19-.65-.17-.68-.28-1.17-.4-1.7-.14-.63-.27-1.26-.38-1.9-.06-.33-.1-.74-.14-1.12-.13-1.37-.16-3.07-.16-6.1.1-6.31.1-6.95 1.1-10.75.89-3.24 1.94-6.1 3.25-8.82l.03-.07c.85-1.7 1.81-3.35 2.9-5 5.5-8.18 14-14.7 23.3-17.7 6.8-2.22 4-2.1 48.5-2.3 23.53-.11 33.31-.16 37.6-.33l2.36-.01.16-.14c.79-.1.95-.23 1.07-.4.7-.96.6-2.8-.1-3.48-.6-.54-4.1-.6-41-.6zm71.434 8.026c-2.015-.006-4.003.156-5.934.494-4.8.8-7.1 1.6-11.5 3.7-8.6 4.1-14.9 10.2-19 18.6-3.3 6.6-4.6 12.5-4.3 19.6.38 10.155 4.07 19.153 10.892 26.485 2.043 2.266 4.346 4.304 6.883 6.08 2.81 2.03 5.78 3.634 8.98 4.83l.21.08c.15.056.3.115.46.168 1.24.472 2.5.904 3.8 1.278 3.4 1 3.4 1 17.6 1.1l14.2.1.39-.38c.77-.1 1.01-.26 1.25-.5.83-.82.91-2.36.17-3.42-.52-.75-.7-.76-14.38-.9-1.15-.01-1.72-.02-2.69-.03-5.39-.09-9-.17-11.37-.35-1.18-.14-2.01-.35-3.23-.68-6.63-1.78-12.35-5.05-16.95-9.65-3.16-3.13-5.1-5.91-7.1-10.03-5-10.35-4.74-21.75.7-32 4.1-7.76 11.21-14 19.31-17.02 6.31-2.35 14.28-2.85 20.48-1.27 7.12 1.8 12.12 4.62 17.2 9.7 4.97 4.96 7.67 9.7 9.7 16.93.34 1.38.6 2.73.74 3.95.14 1.26.27 8.15.34 17.36l.05 13.44c.01 3.36.02 5.55.03 8.22.03 14.75.13 22.3.39 22.73.01.02.03.04.04.05.02.07.03.18.04.23l-.17.16c.09.16.24.29.41.39v.01c.19.27.5.42.86.46.35.18.66.24.97.2.85.07 1.74-.14 2.2-.65.6-.6.6-3.1.5-32.8-.1-31.86-.1-32.08-.9-35.06-4.62-17.66-18.54-29.48-36.09-31.18-1.71-.23-3.41-.37-5.1-.37zM49.6 70.19c-5.4 0-6.1.1-9.9 1.1-.51.14-.997.304-1.493.458-7.01 2.092-12.89 5.615-18.037 10.762-12.16 12.4-15.14 31.7-7.3 47.3 5.76 11.5 15.84 19.2 28.56 21.9l.19.6c2.6.5 4.2.6 9.1.5 3.7-.1 7-.4 8.4-.7 3.5-.8 8.2-2.7 11.3-4.5 5.7-3.3 11.802-9.1 11.802-11.3 0-.315-.063-.61-.168-.886.112-.596-.107-1.055-.633-1.533-.52-.52-1.03-.74-1.62-.63-1.01-.28-2.13.49-4.43 2.77-5.12 4.94-8.69 7.18-14.32 9.08-7.63 2.52-15.71 2.52-23.23 0-.76-.25-1.51-.53-2.25-.83-.14-.06-.28-.12-.42-.19-.32-.13-.63-.28-.95-.43-.88-.42-1.74-.87-2.57-1.35-8.47-4.96-14.3-12.97-16.74-21.9-5-19.69 7.65-39.83 28.21-43.97 4.4-.9 12.07-.6 16.3.6 5.27 1.5 9.95 4.1 14.2 7.8 1.83 1.6 2.39 1.9 3.55 1.9 1.78 0 2.22-.5 2.22-2.5 0-1.37-.1-1.69-1.38-2.84-.91-.98-2.37-2.18-4.67-3.88-3.4-2.4-9-5-13.7-6.2-3.8-1-4.6-1.1-10-1.1zm98.973.263c-12.93 0-20.663.11-22.223.336-.28.03-.56.08-.84.11h-1.53l-2.82.8c-.206.06-.402.13-.607.19-4.162 1.12-8.177 2.93-11.824 5.29-8.66 5.49-14.78 13.71-17.59 24.01-.53 1.87-.76 3.02-.88 4.81-.15 1.35-.19 2.89-.19 5.56.01 1.94.05 3.3.13 4.48l.03.56c0 .05.01.1.01.15.23 3.84.87 6.24 2.4 10.11 3.9 9.9 11 17.4 20.6 22 3.7 1.77 7.32 2.86 10.94 3.47 1.17.17 4.66.26 7.8.19 7.1-.15 10.8-.98 16.7-3.85 10.8-5.24 18.8-14.9 22-26.6.43-1.67.66-2.58.8-4.74l.1-.39v-2.4c.07-2.33.12-5.35.2-10.59V89.61l-.58-.578-.06-.074c-.08-.194-.16-.344-.27-.468-.13-.126-.27-.228-.42-.32-.77-.78-1.63-.842-2.58-.08-.14.084-.24.19-.34.327-.11.107-.21.24-.28.492-.48.59-.49 2.08-.49 11.6 0 1.45-.03 2.45-.04 3.69-.11 4.8-.19 7.8-.29 9.87-.22 2.86-.56 4.86-1.09 6.93-.6 2.27-1.44 4.47-2.48 6.56l-.01.01c-1.58 3.05-3.65 5.89-6.22 8.6-4.78 5.07-10.74 8.56-17.5 10.27-1.61.39-3.24.66-4.88.83-1.06.06-2.23.09-3.93.09-1.51 0-2.59-.04-3.55-.1-4.59-.47-9.11-1.79-13.25-4-2.17-1.18-4.28-2.65-6.24-4.34-1.95-1.75-4.01-3.88-5.26-5.55-1.8-2.4-4.3-7.2-5.4-10.4-1.2-3.6-2.1-9.8-1.8-12.7 1-9.9 4-16.8 10.4-23.4 4.8-4.9 10.3-8.1 17.7-10.1l3.4-.9 35.5-.1c24.38-.1 35.58-.2 35.88-.5.72-.6.58-3.3-.2-4-.06-.04-.19-.08-.32-.12l-.46-.6-33.6-.1c-5.43-.03-10.32-.04-14.63-.04zm-24.37 81.926c-.026-.01-.08-.01-.103-.01l.26.04c-.053-.01-.106-.03-.158-.03zm-75-73.86c-7.553-.09-16.09 3.33-21.903 8.86-4.4 4.1-7.3 8.9-9.2 15-.745 2.7-.877 3.63-.892 7.94-.05 1.28-.048 2.51.018 3.67.054 2.43.256 3.6.773 5.29.5 2.06 1.24 4.08 2.27 6.2 1.89 4 3.97 6.8 7.52 10.1 4.27 4.1 9.55 6.7 15.55 7.9l.28.1c6.4 1.3 15.5.1 21-2.7 6.4-3.3 13.2-10.5 15.4-16.5.6-1.4.1-2.9-1.3-3.5-.11-.05-.2-.07-.3-.11-.53-.49-1.27-.73-2.12-.51-.6.1-1.2.9-2.3 2.9-4.7 8.7-12.4 14-21.7 15-5.55.54-10.84-.5-15.44-2.8-7.84-4.26-12.98-11.7-14.25-21.08-1.4-10.5 4.7-21.9 14.5-27 4.6-2.3 7.2-3 12.5-3 7 0 12.1 1.8 17.5 6.2 2.2 1.9 2.9 2.2 4 2.2 1.75 0 2.22-.5 2.22-2.4 0-1.4-.18-1.7-2.08-3.4-2.45-2.2-5.99-4.4-9.25-5.7-1.02-.42-2.07-.77-3.14-1.07-2.66-.84-5.41-1.38-8.17-1.55-.5-.04-1-.06-1.5-.07zm189.08.04c-3.212 0-6.412.27-8.462.82-10.63 2.87-18.86 10.62-22.53 21.11-.36.97-.7 1.97-.99 3.01-.9 3.1-1 4.2-1 8.1 0 3.8.2 5.2.9 8 3.2 11.8 11.6 20.1 23.5 23.4l3.5.9h13.2c6.3 0 9.65 0 11.52-.09h.01c.78-.02 1.39-.06 1.78-.11.94-.1 1.16-.26 1.43-.53.9-.8 1-2.4.2-3.4-.19-.32-.37-.5-1.25-.63l-.06-.08h-.7c-1.67-.13-4.89-.15-11.48-.2-13.9-.17-15.4-.34-19.9-2.14-15.8-6.38-22.1-24.93-13.4-39.65 1.7-2.89 6.4-7.46 9.4-9.26 9.72-5.73 21.51-5.07 30.44 1.7 3.93 2.98 6.94 6.88 8.8 11.38 1.3 3.15 1.79 4.23 1.98 12.86.01.69.03 1.05.04 1.84.03 2.66.05 6.05.07 9.79.02 4.78.02 9.82.02 17.32v34.11l.77.82.19-.18c.21.25.46.35.76.5l-.17.12c.33.16.64.24.95.26.79.41 1.7.29 2.37-.47.15-.17.27-.33.36-.78l.65-.65-.1-35.6-.2-35.6-.8-2.8c-3.1-11.1-12.2-20.2-23.2-23.1-2.1-.55-5.32-.83-8.53-.83zm-68.474.39c-3.87 0-8.45.01-13.8.04l-29.91.19-.43.12h-.25l-2.8.8c-1.66.47-3.24 1.07-4.77 1.75-5.92 2.56-10.61 6.48-14.06 11.8-1.35 2.02-2.48 4.2-3.37 6.52-1.45 3.63-2.04 7.11-2.04 11.6 0 2.14.18 4.11.54 6.01.12.91.25 1.75.43 2.41 3.37 12.3 13.87 21.8 26.3 23.8l.05.05-.04.05h.09l.43.39c1 .2 4 .3 6.6.2 3.9-.1 5.4-.31 7.9-1.11 11.1-3.3 19.4-11.8 22.5-23 .8-2.7.8-3.7.9-16.8l.1-14-1-.8c-.42-.35-.86-.55-1.29-.64-1.03-.7-2.11-.64-2.93.19-.7.68-.7 1.18-.7 11.74 0 6.05-.1 12.46-.3 14.2-.5 4.2-2.1 8.6-4.3 12-2 3-6 6.8-8.9 8.6-7.61 4.54-18.39 4.86-26.45.98-3.55-1.92-6.76-4.67-9.33-8.27-7.9-11.2-6.3-26.6 3.7-35.8 3.8-3.5 7.6-5.5 13-6.9 1.8-.5 6.1-.6 31.5-.6 16.3 0 30.1-.2 30.8-.4 1.6-.4 1.9-.8 1.9-2.6 0-1.1.32-1.69-1.91-2.01-.21-.12-.43-.23-.69-.3-.72-.15-5.93-.24-17.52-.24z" fill="#fff"/><path d="M238.34 129.24c-1.728-.076-3.464-8.015-4.96-8.88-1.398-.806-8.726 1.98-9.47.55-.798-1.535 5.21-7.008 5.21-8.738 0-1.612-6.077-6.566-5.21-7.926.93-1.458 8.673 1.008 10.17.143 1.396-.81 2.65-8.55 4.26-8.48 1.727.07 3.463 8.01 4.96 8.88 1.397.8 8.726-1.98 9.47-.55.798 1.53-5.21 7.01-5.21 8.73 0 1.61 6.077 6.56 5.21 7.92-.93 1.45-8.673-1.01-10.17-.15-1.396.8-2.65 8.54-4.26 8.47zm85.826-49.968c0-.175-.214-.35-.43-.35h-4.605c-.21 0-.42.175-.42.35-.05 1.928-.48 3.155-3.43 3.155-2.03 0-3.32-.657-3.32-2.41V68.053c0-1.884 1.02-2.717 3.38-2.717 2.84 0 3.32 1.402 3.38 3.2 0 .218.22.35.43.35h4.61c.22 0 .43-.175.43-.35-.16-4.427-3.16-6.53-8.78-6.53-4.01 0-8.89 1.533-8.89 5.39V80.28c0 4.12 4.72 5.522 9 5.522 3.75 0 8.68-1.884 8.68-5.434zm4.83-17.092c-.213 0-.43.132-.43.35v22.702c0 .175.217.35.43.35h4.607c.214 0 .428-.175.428-.35v-9.73c0-.218.22-.35.43-.35h5.89c.22 0 .43.132.43.35v9.73c0 .175.22.35.43.35h4.61c.22 0 .43-.175.43-.35v-22.7c0-.22-.21-.352-.43-.352h-4.6c-.21 0-.43.132-.43.35v9.335c0 .175-.21.35-.43.35h-5.89c-.21 0-.43-.175-.43-.35V62.53c0-.218-.21-.35-.42-.35zm22.962 0c-.214 0-.428.132-.428.35v22.702c0 .175.214.35.428.35h4.606c.214 0 .43-.175.43-.35v-22.7c0-.22-.216-.352-.43-.352zm27.65 17.092c0-.175-.216-.35-.43-.35h-4.606c-.214 0-.428.175-.428.35-.054 1.928-.482 3.155-3.428 3.155-2.035 0-3.32-.657-3.32-2.41V68.053c0-1.884 1.017-2.717 3.373-2.717 2.83 0 3.32 1.402 3.37 3.2 0 .218.21.35.43.35h4.6c.21 0 .43-.175.43-.35-.16-4.427-3.16-6.53-8.79-6.53-4.02 0-8.89 1.533-8.89 5.39V80.28c0 4.12 4.71 5.522 8.99 5.522 3.75 0 8.67-1.884 8.67-5.434zM391.89 70.2c.16-.35.75-.35.856 0l2.196 6.75c.053.218-.16.437-.43.437h-4.337c-.32 0-.482-.22-.43-.438zm-1.5-8.02c-.162 0-.322.088-.376.22l-8.3 22.7c-.055.22.16.483.427.483h4.56c.22 0 .38-.132.43-.263l1.45-4.514c.06-.176.22-.263.38-.263h6.8c.22 0 .38.087.43.263l1.45 4.514c.06.13.22.263.38.263h4.55c.32 0 .54-.263.43-.483l-8.25-22.7c-.05-.132-.21-.22-.42-.22zm15.052 17.88c0 3.945 4.98 5.742 9.16 5.742s9.157-1.797 9.157-5.74V73.05c0-.177-.22-.353-.43-.353h-8.95c-.22 0-.43.176-.43.35v2.28c0 .175.21.35.43.35h3.48c.21 0 .43.176.43.35v4.033c0 1.71-1.88 2.367-3.7 2.367s-3.7-.657-3.7-2.366V67.71c0-1.71 1.87-2.367 3.7-2.367 3.1 0 3.64 1.14 3.69 3.2 0 .218.21.35.43.35h4.6c.21 0 .43-.175.43-.35-.16-4.47-3.59-6.53-9.16-6.53-4.18 0-9.16 1.75-9.16 5.697zm22.808-12.357V80.06c0 3.945 4.98 5.742 9.157 5.742s9.16-1.797 9.16-5.74V67.7c0-3.944-4.982-5.697-9.16-5.697s-9.158 1.753-9.158 5.698zm5.462 12.358V67.71c0-1.71 1.874-2.367 3.695-2.367 1.82 0 3.696.657 3.696 2.367v12.35c0 1.71-1.875 2.367-3.696 2.367-1.82 0-3.695-.657-3.695-2.366zM307 142.09v12.554c0 4.007 5.29 5.832 9.726 5.832s9.726-1.825 9.726-5.832V142.09c0-4.007-5.29-5.788-9.726-5.788S307 138.08 307 142.088zm5.802 12.554V142.09c0-1.737 1.99-2.404 3.924-2.404s3.925.667 3.925 2.404v12.554c0 1.736-1.99 2.404-3.92 2.404s-3.92-.668-3.92-2.404zm19.212-18.164c-.227 0-.455.134-.455.357v23.06c0 .177.22.355.45.355h4.89c.23 0 .45-.178.45-.356v-9.437c0-.23.22-.36.45-.36h9.1c.23 0 .45-.18.45-.36v-2.5c0-.23-.23-.36-.46-.36h-9.1c-.23 0-.46-.18-.46-.36v-6.5c0-.22.22-.36.45-.36h10.58c.22 0 .45-.18.45-.36v-2.5c0-.22-.23-.36-.46-.36zm39.448 8.15c.17-.357.796-.357.91 0l2.332 6.854c.056.223-.17.446-.455.446h-4.61c-.34 0-.51-.223-.46-.446zm-1.593-8.148c-.17 0-.35.09-.4.223l-8.82 23.06c-.06.222.17.49.45.49h4.83c.23 0 .4-.135.45-.268l1.53-4.585c.06-.178.23-.267.4-.267h7.22c.22 0 .4.09.45.267l1.53 4.585c.05.133.23.267.4.267h4.83c.34 0 .57-.267.45-.49l-8.76-23.06c-.06-.133-.23-.222-.46-.222zm25.26 23.77c.17 0 .39-.132.45-.266l8.02-23.06c.11-.222-.12-.445-.46-.445h-5.18c-.17 0-.4.09-.4.27l-4.21 14.74c-.12.4-.8.4-.91 0l-4.15-14.73c0-.18-.23-.26-.4-.26h-5.23c-.29 0-.52.23-.4.45l7.96 23.06c.05.14.22.27.45.27zm12.69-23.772c-.23 0-.46.134-.46.357v23.06c0 .177.22.355.45.355h4.89c.23 0 .45-.178.45-.356v-23.06c0-.222-.23-.356-.46-.356zm19.29 8.15c.17-.357.79-.357.91 0l2.33 6.854c.05.223-.17.446-.46.446h-4.61c-.34 0-.51-.223-.46-.446zm-1.6-8.148c-.17 0-.34.09-.4.223l-8.82 23.06c-.06.222.17.49.45.49h4.83c.23 0 .4-.135.45-.268l1.53-4.585c.05-.178.22-.267.39-.267h7.23c.22 0 .4.09.45.267l1.53 4.585c.05.133.23.267.4.267h4.83c.34 0 .56-.267.45-.49l-8.76-23.06c-.06-.133-.23-.222-.46-.222zm16.58 3.21c.23 0 .45.134.45.356V159.9c0 .18.23.357.45.357h4.89c.22 0 .45-.178.45-.356v-19.85c0-.22.22-.35.45-.35h5.8c.23 0 .45-.17.45-.35v-2.49c0-.22-.23-.35-.46-.35h-18.3c-.23 0-.46.14-.46.36v2.5c0 .18.23.36.45.36zm16.15-3.212c-.23 0-.46.134-.46.357v23.06c0 .177.22.355.45.355h4.89c.22 0 .45-.178.45-.356v-23.06c0-.222-.23-.356-.46-.356zm10.59 5.61v12.554c0 4.007 5.29 5.832 9.72 5.832 4.43 0 9.72-1.825 9.72-5.832V142.09c0-4.007-5.29-5.788-9.73-5.788s-9.73 1.78-9.73 5.788zm5.8 12.554V142.09c0-1.737 1.99-2.404 3.92-2.404s3.92.667 3.92 2.404v12.554c0 1.736-1.99 2.404-3.93 2.404s-3.92-.668-3.92-2.404zm18.97-18.164c-.23 0-.46.134-.46.357v23.06c0 .177.22.355.45.355h4.89c.23 0 .45-.178.45-.356v-12.42c0-.4.63-.49.85-.18l8.02 12.734c.06.133.23.222.4.222h4.72c.22 0 .45-.178.45-.356v-23.06c0-.222-.23-.356-.46-.356h-4.89c-.23 0-.46.134-.46.356v12.42c0 .357-.68.49-.85.135l-7.91-12.73c-.06-.13-.23-.18-.4-.18zm-187.26-14.5c0 .168.22.336.43.336h7.31c5.4 0 10.25-1.343 10.25-6.124v-10.486c0-4.363-4.8-5.79-9.77-5.79h-7.8c-.22 0-.44.127-.44.337zm5.56-18.708c0-.21.22-.335.44-.335h2.12c2.56 0 4.31.63 4.31 2.768v10.78c0 2.223-1.64 2.81-4.31 2.81h-2.13c-.22 0-.44-.168-.44-.335zm18.1-3.355c-.22 0-.44.126-.44.336v21.73c0 .17.22.337.43.337h15.71c.22 0 .44-.167.44-.335v-2.517c0-.21-.22-.336-.44-.336h-10.14c-.22 0-.44-.168-.44-.336v-5.912c0-.21.21-.336.43-.336h8.73c.22 0 .43-.167.43-.334v-2.35c0-.21-.22-.335-.43-.335h-8.73c-.22 0-.44-.17-.44-.34v-5.92c0-.21.22-.34.44-.34h10.15c.22 0 .44-.17.44-.34v-2.35c0-.21-.22-.34-.44-.34zm19.7 22.063c0 .168.22.336.44.336h4.69c.22 0 .44-.168.44-.336v-8.053c0-.21.22-.336.43-.336 6.71-.04 12.05-.5 12.05-6.84 0-4.99-3.49-6.83-9.71-6.83h-7.91c-.22 0-.44.13-.44.34zm5.56-18.708c0-.21.22-.335.44-.335h2.45c3.87 0 4.36 1.216 4.36 3.86 0 2.767-.6 3.774-4.58 3.774h-2.23c-.22 0-.44-.17-.44-.34zm22.59 4.327c.17-.34.77-.34.88 0l2.23 6.46c.06.21-.16.42-.43.42h-4.42c-.33 0-.49-.21-.44-.42zm-1.52-7.68c-.17 0-.33.09-.38.21l-8.46 21.73c-.06.21.16.46.43.46h4.64c.22 0 .38-.13.43-.25l1.47-4.32c.05-.17.22-.25.38-.25h6.92c.22 0 .38.08.44.25l1.47 4.32c.05.12.22.25.38.25h4.64c.33 0 .54-.25.43-.46l-8.4-21.73c-.05-.13-.22-.21-.43-.21zm21.23 3.35c0-.21.21-.34.43-.34h2.45c3.49 0 4.74.79 4.74 3.48 0 2.56-1.04 3.52-4.47 3.52H398c-.22 0-.434-.17-.434-.34zm-5.57 18.7c0 .16.21.33.43.33h4.69c.22 0 .43-.17.43-.34v-8.9c0-.21.22-.34.44-.34h2.62c.16 0 .32.04.38.17l4.96 9.19c.05.12.22.21.38.21h4.96c.27 0 .49-.25.38-.51l-5.57-9.44c-.11-.17 0-.38.22-.46 3-1.05 4.42-2.81 4.42-5.41 0-4.83-3.98-6.59-9.82-6.59h-8.51c-.218 0-.436.13-.436.34zm25.48-19.04c.22 0 .44.12.44.33v18.7c0 .16.22.33.44.33h4.69c.22 0 .44-.17.44-.34v-18.71c0-.21.22-.34.44-.34h5.56c.22 0 .43-.17.43-.34v-2.35c0-.21-.22-.33-.44-.33h-17.56c-.22 0-.44.13-.44.34v2.35c0 .16.21.33.43.33zm15.33-3.03c-.22 0-.44.12-.44.33v21.73c0 .17.22.33.44.33h5.12v-12.08c0-.34.66-.46.82-.13l4.64 8.01c.05.13.22.21.38.21H446c.166 0 .33-.08.38-.21l4.69-8.01c.17-.34.82-.25.82.12v12.08h5.13c.22 0 .44-.17.44-.34v-21.73c0-.21-.22-.34-.437-.34h-4.69c-.165 0-.33.04-.384.17l-6.65 11.03c-.17.25-.6.25-.77 0l-6.71-11.03c-.06-.13-.22-.17-.39-.17zm30.37 0c-.22 0-.44.12-.44.33v21.73c0 .17.22.33.44.33h15.71c.22 0 .44-.17.44-.34v-2.52c0-.21-.22-.34-.44-.34h-10.14c-.22 0-.44-.17-.44-.34v-5.91c0-.21.22-.34.44-.34h8.73c.22 0 .43-.17.43-.34v-2.35c0-.21-.22-.33-.44-.33h-8.73c-.22 0-.44-.17-.44-.34v-5.92c0-.21.22-.34.44-.34h10.15c.22 0 .44-.17.44-.34v-2.35c0-.21-.22-.33-.44-.33zm19.91 0c-.22 0-.44.12-.44.33v21.73c0 .17.22.33.43.33h4.69c.21 0 .43-.17.43-.34v-11.7c0-.38.6-.46.82-.17l7.69 11.99c.05.12.22.21.38.21h4.52c.22 0 .43-.17.43-.34v-21.73c0-.21-.216-.34-.435-.34h-4.69c-.22 0-.44.12-.44.33v11.7c0 .33-.655.46-.82.12l-7.58-12c-.058-.13-.22-.17-.38-.17zm27.18 3.02c.22 0 .44.13.44.34v18.7c0 .17.22.34.44.34h4.69c.21 0 .43-.17.43-.34v-18.71c0-.21.22-.34.44-.34h5.56c.22 0 .43-.17.43-.34v-2.35c0-.21-.213-.34-.43-.34H504.7c-.22 0-.44.12-.44.33v2.35c0 .17.22.33.44.33z" fill="#fff"/></svg>