<?xml version="1.0" encoding="UTF-8" standalone="no"?>
<!-- Created with Inkscape (http://www.inkscape.org/) -->

<svg
   xmlns:dc="http://purl.org/dc/elements/1.1/"
   xmlns:cc="http://creativecommons.org/ns#"
   xmlns:rdf="http://www.w3.org/1999/02/22-rdf-syntax-ns#"
   xmlns:svg="http://www.w3.org/2000/svg"
   xmlns="http://www.w3.org/2000/svg"
   xmlns:sodipodi="http://sodipodi.sourceforge.net/DTD/sodipodi-0.dtd"
   xmlns:inkscape="http://www.inkscape.org/namespaces/inkscape"
   version="1.1"
   id="svg815"
   width="187.37338"
   height="117.71256"
   viewBox="0 0 187.37338 117.71256"
   sodipodi:docname="NoDialTone.svg"
   inkscape:version="0.92.2 (5c3e80d, 2017-08-06)">
  <metadata
     id="metadata821">
    <rdf:RDF>
      <cc:Work
         rdf:about="">
        <dc:format>image/svg+xml</dc:format>
        <dc:type
           rdf:resource="http://purl.org/dc/dcmitype/StillImage" />
        <dc:title></dc:title>
      </cc:Work>
    </rdf:RDF>
  </metadata>
  <defs
     id="defs819" />
  <sodipodi:namedview
     pagecolor="#ffffff"
     bordercolor="#666666"
     borderopacity="1"
     objecttolerance="10"
     gridtolerance="10"
     guidetolerance="10"
     inkscape:pageopacity="0"
     inkscape:pageshadow="2"
     inkscape:window-width="2100"
     inkscape:window-height="1234"
     id="namedview817"
     showgrid="false"
     inkscape:zoom="2.3133333"
     inkscape:cx="123.9125"
     inkscape:cy="48.41737"
     inkscape:window-x="-9"
     inkscape:window-y="17"
     inkscape:window-maximized="1"
     inkscape:current-layer="svg815"
     fit-margin-top="0"
     fit-margin-left="0"
     fit-margin-right="0"
     fit-margin-bottom="0" />
  <g
     id="g1406"
     transform="matrix(2.927693,0,0,2.927693,5.1288071e-4,-34.527498)"
     style="fill:#cccccc">
    <g
       id="Waves"
       style="fill:#cccccc">
      <path
         id="path1343"
         d="m 16.513723,24.153606 c 5.327601,0 10.651301,-1.834999 16.044901,-5.503 9.075695,-6.174299 20.531201,-6.172299 29.893498,0.0079 0.462398,0.3032 1.0821,0.1743 1.384296,-0.291399 0.302704,-0.465601 0.173409,-1.0907 -0.288593,-1.3959 -10.048805,-6.631101 -22.351505,-6.628101 -32.108402,0.0079 -10.035099,6.826 -19.81,6.827 -29.8813004,-10e-4 -0.4585,-0.3111 -1.0796,-0.186998 -1.3881999,0.274701 -0.3081,0.461601 -0.186,1.0877 0.272,1.3988 5.4121003,3.668001 10.7436003,5.502 16.0718003,5.502 z"
         inkscape:connector-curvature="0"
         style="fill:#cccccc" />
      <path
         id="path1345"
         d="m 63.547825,30.893906 c -10.049805,-6.6311 -22.352505,-6.6281 -32.108402,0.0079 -10.036101,6.827999 -19.811001,6.826999 -29.8813004,-0.001 -0.4585,-0.3111 -1.0796,-0.187999 -1.3877,0.274701 -0.3086,0.4617 -0.1865,1.087799 0.2715,1.398799 5.4116001,3.668 10.7426994,5.502999 16.0708004,5.502999 5.327599,-0.001 10.6514,-1.834999 16.045901,-5.503899 9.074695,-6.1753 20.530296,-6.1714 29.893497,0.0078 0.462399,0.3032 1.0826,0.174298 1.3848,-0.291401 0.302201,-0.465599 0.172906,-1.0907 -0.289096,-1.395899 z"
         inkscape:connector-curvature="0"
         style="fill:#cccccc" />
      <path
         id="path1347"
         d="m 63.547825,44.816605 c -10.049805,-6.629097 -22.352001,-6.626099 -32.108402,0.0079 -10.0341,6.828003 -19.8081,6.830002 -29.8813004,-0.001 -0.4585,-0.311001 -1.0796,-0.187 -1.3877,0.2747 -0.3086,0.461701 -0.1865,1.0878 0.2715,1.3989 5.4120998,3.668903 10.7440994,5.503902 16.0718004,5.502903 5.3276,0 10.6513,-1.835003 16.044401,-5.503903 9.076195,-6.173397 20.530796,-6.171398 29.893997,0.0078 0.462399,0.3032 1.0826,0.174301 1.3848,-0.291298 0.302201,-0.465702 0.172906,-1.090801 -0.289096,-1.396002 z"
         inkscape:connector-curvature="0"
         style="fill:#cccccc" />
    </g>
    <g
       id="g1350"
       style="fill:#cccccc" />
    <g
       id="g1352"
       style="fill:#cccccc" />
    <g
       id="g1354"
       style="fill:#cccccc" />
    <g
       id="g1356"
       style="fill:#cccccc" />
    <g
       id="g1358"
       style="fill:#cccccc" />
    <g
       id="g1360"
       style="fill:#cccccc" />
    <g
       id="g1362"
       style="fill:#cccccc" />
    <g
       id="g1364"
       style="fill:#cccccc" />
    <g
       id="g1366"
       style="fill:#cccccc" />
    <g
       id="g1368"
       style="fill:#cccccc" />
    <g
       id="g1370"
       style="fill:#cccccc" />
    <g
       id="g1372"
       style="fill:#cccccc" />
    <g
       id="g1374"
       style="fill:#cccccc" />
    <g
       id="g1376"
       style="fill:#cccccc" />
    <g
       id="g1378"
       style="fill:#cccccc" />
  </g>
  <path
     style="fill:#000000;stroke-width:0.59997624"
     d="M 94.74537,58.169836 C 64.166402,93.580296 51.016159,108.45058 50.465568,108.4909 c -1.280382,0.0937 -2.998162,-1.37997 -3.0913,-2.65207 -0.03956,-0.54035 4.893968,-6.901494 4.893968,-6.901494 l 17.285296,-20.05394 -5.495257,-5.19545 C 44.175965,54.890356 33.18874,38.59889 31.279725,25.08507 l -0.632859,-4.47998 2.454111,-3.8889 C 35.641439,12.69045 42.430185,5.5198201 46.852465,2.1911261 49.820989,-0.04331092 53.958565,-0.66233692 56.357717,0.76903008 57.831271,1.6481771 72.805582,20.69748 75.68324,25.35365 c 2.106548,3.40848 1.718193,6.0054 -2.069397,13.83799 l -3.143428,6.50048 3.921422,4.059766 c 2.156782,2.23287 5.514887,5.56737 7.462453,7.40999 l 3.54104,3.35024 22.35991,-25.825586 c 0,0 14.37713,-15.35435 14.92257,-15.39428 1.28003,-0.0937 2.98925,1.38716 3.08328,2.67138 0.0403,0.55059 -0.43675,0.79575 -31.01572,36.206206 z m 58.58508,34.96722 c -1.69578,3.32777 -8.35609,12.256824 -11.03465,14.793424 -4.18385,3.96214 -5.83281,4.68621 -10.59652,4.65298 -12.44024,-0.0868 -31.43765,-9.11935 -49.9062,-23.728624 l -3.70644,-2.93192 7.97747,-9.2546 7.97746,-9.25461 2.57747,2.12988 c 1.41761,1.17143 4.22718,3.26312 6.24349,4.64819 l 3.66603,2.51831 2.98428,-2.06876 c 6.82672,-4.73239 11.2921,-6.96231 13.54486,-6.76403 2.4849,0.21871 27.65056,13.89181 29.69746,16.13533 1.76659,1.93628 2.03873,6.25258 0.57529,9.12443 z"
     id="path1153"
     inkscape:connector-curvature="0"
     sodipodi:nodetypes="sscccsscsscsscssccscscccsccccscsssc" />
</svg>
